<svg width="600" height="600" viewBox="0 0 600 600" fill="none" xmlns="http://www.w3.org/2000/svg">
<path fill-rule="evenodd" clip-rule="evenodd" d="M17 367L36 245.5L106.5 231.5L147 130H354L428 244.5L557 263.5L582.5 367H527.622C516.338 333.292 484.506 309 447 309C409.494 309 377.662 333.292 366.378 367H225.622C214.338 333.292 182.506 309 145 309C107.494 309 75.6618 333.292 64.3779 367H17Z" fill="#AD0000"/>
<path d="M36 245.5L35.0261 240.596L31.5997 241.276L31.06 244.727L36 245.5ZM17 367L12.06 366.227L11.1573 372H17V367ZM106.5 231.5L107.474 236.404L110.138 235.875L111.144 233.353L106.5 231.5ZM147 130V125H143.612L142.356 128.147L147 130ZM354 130L358.199 127.286L356.722 125H354V130ZM428 244.5L423.801 247.214L425.03 249.117L427.271 249.447L428 244.5ZM557 263.5L561.855 262.304L561.051 259.043L557.729 258.553L557 263.5ZM582.5 367V372H588.881L587.355 365.804L582.5 367ZM527.622 367L522.881 368.587L524.023 372H527.622V367ZM366.378 367V372H369.977L371.119 368.587L366.378 367ZM225.622 367L220.881 368.587L222.023 372H225.622V367ZM64.3779 367V372H67.9769L69.1193 368.587L64.3779 367ZM31.06 244.727L12.06 366.227L21.94 367.773L40.94 246.273L31.06 244.727ZM105.526 226.596L35.0261 240.596L36.9739 250.404L107.474 236.404L105.526 226.596ZM142.356 128.147L101.856 229.647L111.144 233.353L151.644 131.853L142.356 128.147ZM354 125H147V135H354V125ZM432.199 241.786L358.199 127.286L349.801 132.714L423.801 247.214L432.199 241.786ZM557.729 258.553L428.729 239.553L427.271 249.447L556.271 268.447L557.729 258.553ZM587.355 365.804L561.855 262.304L552.145 264.696L577.645 368.196L587.355 365.804ZM527.622 372H582.5V362H527.622V372ZM532.363 365.413C520.418 329.727 486.72 304 447 304V314C482.292 314 512.259 336.856 522.881 368.587L532.363 365.413ZM447 304C407.28 304 373.582 329.727 361.637 365.413L371.119 368.587C381.741 336.856 411.708 314 447 314V304ZM225.622 372H366.378V362H225.622V372ZM230.363 365.413C218.418 329.727 184.72 304 145 304V314C180.292 314 210.259 336.856 220.881 368.587L230.363 365.413ZM145 304C105.28 304 71.5823 329.727 59.6365 365.413L69.1193 368.587C79.7414 336.856 109.708 314 145 314V304ZM17 372H64.3779V362H17V372Z" fill="black"/>
<path d="M387 235H305.5L310 158H344L387 235Z" fill="#D9D9D9" stroke="black" stroke-width="10"/>
<circle cx="145" cy="394" r="75" fill="black"/>
<circle cx="145" cy="394" r="31" fill="#898989"/>
<circle cx="447" cy="394" r="75" fill="black"/>
<circle cx="447" cy="394" r="31" fill="#898989"/>
</svg>
